# File created by Blade
# Date/Time:  Wed Apr 08 17:24:25 2015
#---------------------------------------------------------
:version 1.10
:name HOM
:units
  mass 1.0
  length 1.000000
  angle deg
:documentation
     Acclaim Skeleton File
:root
   axis xyz
   order TX TY TZ RX RY RZ
   position 0.000000 0.000000 0.000000
   orientation 0 0 0
:bonedata
   begin
      id 1
      name Spine_dum
      direction 0.000000 1.000000 0.000000
      length 5.893853
      axis 0.0 0.0 0.0 xyz
   end
   begin
      id 2
      name LeftUpLeg_dum
      direction 1.000000 0.000000 0.000000
      length 3.697939
      axis 0.0 0.0 0.0 xyz
   end
   begin
      id 3
      name RightUpLeg_dum
      direction -1.000000 0.000000 0.000000
      length 3.697939
      axis 0.0 0.0 0.0 xyz
   end
   begin
      id 4
      name Spine
      direction 0.000000 1.000000 0.000000
      length 0.000000
      axis 0.0 0.0 0.0 xyz
      dof rx ry rz
   end
   begin
      id 5
      name Spine_dum1
      direction 0.000000 1.000000 0.000000
      length 16.447146
      axis 0.0 0.0 0.0 xyz
   end
   begin
      id 6
      name Spine_dum2
      direction 0.000000 1.000000 0.000000
      length 10.900383
      axis 0.0 0.0 0.0 xyz
   end
   begin
      id 7
      name Spine_dum3
      direction 0.000000 1.000000 0.000000
      length 10.900383
      axis 0.0 0.0 0.0 xyz
   end
   begin
      id 8
      name Head
      direction 0.000000 1.000000 0.000000
      length 4.527550
      axis 0.0 0.0 0.0 xyz
      dof rx ry rz
   end
   begin
      id 9
      name LeftShoulder
      direction 1.000000 0.000000 0.000000
      length 8.219464
      axis 0.0 0.0 -90.0 xyz
      dof rx ry rz
   end
   begin
      id 10
      name LeftArm
      direction 1.000000 0.000000 0.000000
      length 11.094937
      axis 0.0 0.0 -90.0 xyz
      dof rx ry rz
   end
   begin
      id 11
      name LeftForeArm
      direction 1.000000 0.000000 0.000000
      length 9.103875
      axis 0.0 0.0 -90.0 xyz
      dof ry rz rx
   end
   begin
      id 12
      name LeftHand
      direction 0.000000 0.000000 0.000000
      length 0.000000
      axis 0.0 0.0 -90.0 xyz
      dof rx ry rz
   end
   begin
      id 13
      name LeftHand_dum1
      direction 0.000000 0.000000 0.000000
      length 0.000000
      axis 0.0 0.0 -90.0 xyz
   end
   begin
      id 14
      name LeftHand_dum2
      direction 1.000000 0.000000 0.000000
      length 3.937000
      axis 0.0 0.0 -90.0 xyz
   end
   begin
      id 15
      name LeftHandThumb1
      direction 0.000000 0.000000 1.000000
      length 3.937000
      axis 0.0 0.0 -90.0 xyz
      dof rx rz ry
   end
   begin
      id 16
      name RightShoulder
      direction -1.000000 0.000000 0.000000
      length 8.219464
      axis 0.0 0.0 90.0 xyz
      dof rx ry rz
   end
   begin
      id 17
      name RightArm
      direction -1.000000 0.000000 0.000000
      length 11.094937
      axis 0.0 0.0 90.0 xyz
      dof rx ry rz
   end
   begin
      id 18
      name RightForeArm
      direction -1.000000 0.000000 0.000000
      length 9.103875
      axis 0.0 0.0 90.0 xyz
      dof ry rz rx
   end
   begin
      id 19
      name RightHand
      direction 0.000000 0.000000 0.000000
      length 0.000000
      axis 0.0 0.0 90.0 xyz
      dof rx ry rz
   end
   begin
      id 20
      name RightHand_dum1
      direction 0.000000 0.000000 0.000000
      length 0.000000
      axis 0.0 0.0 90.0 xyz
   end
   begin
      id 21
      name RightHand_dum2
      direction -1.000000 0.000000 0.000000
      length 3.937000
      axis 0.0 0.0 90.0 xyz
   end
   begin
      id 22
      name RightHandThumb1
      direction 0.000000 0.000000 1.000000
      length 3.937000
      axis 0.0 0.0 90.0 xyz
      dof rx rz ry
   end
   begin
      id 23
      name LeftUpLeg
      direction 0.000000 -1.000000 0.000000
      length 16.181467
      axis 0.0 0.0 0.0 xyz
      dof rx ry rz
   end
   begin
      id 24
      name LeftLeg
      direction 0.000000 -1.000000 0.000000
      length 16.501392
      axis 0.0 0.0 0.0 xyz
      dof rx ry rz
   end
   begin
      id 25
      name LeftFoot
      direction 0.000000 -0.258819 0.965926
      length 6.408245
      axis 15.0 0.0 0.0 xyz
      dof rx ry rz
   end
   begin
      id 26
      name LeftToeBase
      direction 0.000000 0.000000 1.000000
      length 2.952750
      axis 0.0 0.0 0.0 xyz
      dof rx ry rz
   end
   begin
      id 27
      name RightUpLeg
      direction 0.000000 -1.000000 0.000000
      length 16.181467
      axis 0.0 0.0 0.0 xyz
      dof rx ry rz
   end
   begin
      id 28
      name RightLeg
      direction 0.000000 -1.000000 0.000000
      length 16.501392
      axis 0.0 0.0 0.0 xyz
      dof rx ry rz
   end
   begin
      id 29
      name RightFoot
      direction 0.000000 -0.258819 0.965926
      length 6.408245
      axis 15.0 0.0 0.0 xyz
      dof rx ry rz
   end
   begin
      id 30
      name RightToeBase
      direction 0.000000 0.000000 1.000000
      length 2.952750
      axis 0.0 0.0 0.0 xyz
      dof rx ry rz
   end
:hierarchy
   begin
      root Spine_dum LeftUpLeg_dum RightUpLeg_dum
      Spine_dum Spine
      LeftUpLeg_dum LeftUpLeg
      RightUpLeg_dum RightUpLeg
      Spine Spine_dum1 Spine_dum2 Spine_dum3
      Spine_dum1 Head
      Spine_dum2 LeftShoulder
      Spine_dum3 RightShoulder
      LeftShoulder LeftArm
      LeftArm LeftForeArm
      LeftForeArm LeftHand
      LeftHand LeftHand_dum1 LeftHand_dum2
      LeftHand_dum1 LeftHandThumb1
      RightShoulder RightArm
      RightArm RightForeArm
      RightForeArm RightHand
      RightHand RightHand_dum1 RightHand_dum2
      RightHand_dum1 RightHandThumb1
      LeftUpLeg LeftLeg
      LeftLeg LeftFoot
      LeftFoot LeftToeBase
      RightUpLeg RightLeg
      RightLeg RightFoot
      RightFoot RightToeBase
   end

# File created by Blade
# Date/Time:  Wed Apr 08 17:24:36 2015
# Frame Rate: 120.000 fps
#------------------------------------------------------
:FULLY-SPECIFIED
:DEGREES
159
root 9.232263 36.089832 -0.578326 14.951659 -62.063249 7.279520
Spine -18.749074 0.152521 -3.406450
Head 4.725018 20.104639 3.697508
LeftShoulder -8.844819 22.508690 16.900110
LeftArm 18.707742 12.897143 -82.806135
LeftForeArm 26.447874 0.000000 37.167688
LeftHand -11.923691 -0.000000 -8.314195
LeftHandThumb1 -26.253704 0.000000 33.147579
RightShoulder -35.227071 -49.617173 9.653597
RightArm 49.849299 -6.758937 55.098579
RightForeArm 2.843381 -0.000000 36.056173
RightHand -0.911167 -0.000000 9.495472
RightHandThumb1 -24.326973 -0.000000 -32.862282
LeftUpLeg -30.072797 12.918337 -14.577527
LeftLeg 16.203642 -0.000000 -0.000000
LeftFoot -11.172564 14.292973 -5.630520
LeftToeBase 6.464548 -0.000000 -0.000000
RightUpLeg -40.166003 -15.620625 -3.423528
RightLeg 50.329007 -0.000000 -0.000000
RightFoot -16.005957 -14.535374 19.301864
RightToeBase -5.331429 -0.000000 0.000000
160
root 9.225302 36.077449 -0.529937 14.937871 -61.560724 6.991042
Spine -18.397235 -0.076231 -3.347363
Head 4.686839 20.049917 3.758118
LeftShoulder -8.886456 22.693598 16.693514
LeftArm 18.938069 13.345528 -82.765523
LeftForeArm 26.401728 -0.000000 36.241811
LeftHand -11.746037 0.000000 -8.441040
LeftHandThumb1 -26.253704 0.000000 33.147579
RightShoulder -35.435034 -49.711983 10.024218
RightArm 50.081032 -7.426818 54.718335
RightForeArm 2.805594 0.000000 36.295559
RightHand -0.777082 -0.000000 9.144572
RightHandThumb1 -24.326973 -0.000000 -32.862282
LeftUpLeg -29.774988 12.757695 -14.374339
LeftLeg 16.347618 -0.000000 -0.000000
LeftFoot -11.299087 14.005174 -5.575575
LeftToeBase 6.412311 -0.000000 -0.000000
RightUpLeg -41.340601 -15.353217 -3.634807
RightLeg 53.380527 -0.000000 -0.000000
RightFoot -15.913614 -13.475187 19.002738
RightToeBase -6.586750 -0.000000 0.000000
161
root 9.216399 36.070553 -0.484649 14.991394 -61.038270 6.652393
Spine -18.080180 -0.315050 -3.246938
Head 4.679637 20.044214 3.819527
LeftShoulder -8.914004 22.859333 16.474975
LeftArm 19.157902 13.838435 -82.656582
LeftForeArm 26.359756 -0.000000 35.338651
LeftHand -11.633339 0.000000 -8.559802
LeftHandThumb1 -26.253704 0.000000 33.147579
RightShoulder -35.634937 -49.786183 10.396102
RightArm 50.240567 -8.048055 54.346009
RightForeArm 2.728971 -0.000000 36.602165
RightHand -0.704475 -0.000000 8.740949
RightHandThumb1 -24.326973 -0.000000 -32.862282
LeftUpLeg -29.492602 12.503580 -14.110859
LeftLeg 16.463165 -0.000000 -0.000000
LeftFoot -11.405772 13.795873 -5.554272
LeftToeBase 6.404357 -0.000000 -0.000000
RightUpLeg -42.590041 -15.125669 -3.755196
RightLeg 56.496732 -0.000000 -0.000000
RightFoot -15.828635 -12.589106 18.728499
RightToeBase -7.278487 -0.000000 0.000000
162
root 9.204515 36.066387 -0.443466 15.127297 -60.531063 6.174154
Spine -17.724259 -0.550082 -3.035893
Head 4.678966 20.067994 3.818189
LeftShoulder -8.962272 22.947280 16.220791
LeftArm 19.314492 14.239105 -82.576229
LeftForeArm 26.326167 -0.000000 34.416561
LeftHand -11.521182 -0.000000 -8.677250
LeftHandThumb1 -26.253704 0.000000 33.147579
RightShoulder -35.740099 -49.868024 10.653768
RightArm 50.378585 -8.608819 54.081737
RightForeArm 2.644676 -0.000000 36.872903
RightHand -0.621684 0.000000 8.447235
RightHandThumb1 -24.326973 -0.000000 -32.862282
LeftUpLeg -29.298693 12.558323 -13.887203
LeftLeg 16.756390 -0.000000 -0.000000
LeftFoot -11.473679 13.411555 -5.310061
LeftToeBase 6.288692 -0.000000 -0.000000
RightUpLeg -43.855891 -14.984063 -3.730802
RightLeg 59.615958 -0.000000 -0.000000
RightFoot -15.930434 -11.863281 18.414131
RightToeBase -7.317787 -0.000000 0.000000
163
root 9.192240 36.067236 -0.401343 15.235850 -60.002394 5.730635
Spine -17.382700 -0.801430 -2.823662
Head 4.732657 20.081217 3.845165
LeftShoulder -8.982684 22.983891 16.002858
LeftArm 19.422058 14.649410 -82.510625
LeftForeArm 26.311507 -0.000000 33.484187
LeftHand -11.447561 0.000000 -8.784420
LeftHandThumb1 -26.253704 0.000000 33.147579
RightShoulder -35.957056 -49.978125 11.008652
RightArm 50.599238 -9.114350 53.778084
RightForeArm 2.592120 -0.000000 37.079998
RightHand -0.533377 -0.000000 8.158731
RightHandThumb1 -24.326973 -0.000000 -32.862282
LeftUpLeg -28.874858 12.143833 -13.484854
LeftLeg 16.693262 -0.000000 -0.000000
LeftFoot -11.530311 13.402042 -5.319195
LeftToeBase 6.293270 -0.000000 -0.000000
RightUpLeg -45.157907 -14.971474 -3.646888
RightLeg 62.736356 -0.000000 -0.000000
RightFoot -16.060709 -11.080666 18.189467
RightToeBase -7.883588 -0.000000 0.000000
164
root 9.182397 36.073875 -0.367093 15.516673 -59.416810 5.201137
Spine -17.162627 -1.111370 -2.524349
Head 4.828492 20.075096 3.841550
LeftShoulder -8.994681 22.978976 15.803986
LeftArm 19.464622 15.003328 -82.507028
LeftForeArm 26.263869 -0.000000 32.531999
LeftHand -11.434832 -0.000000 -8.787990
LeftHandThumb1 -26.253704 0.000000 33.147579
RightShoulder -36.081881 -50.039614 11.243040
RightArm 50.721214 -9.606385 53.581578
RightForeArm 2.501711 -0.000000 37.243500
RightHand -0.356912 -0.000000 7.860623
RightHandThumb1 -24.326973 -0.000000 -32.862282
LeftUpLeg -28.533576 11.600637 -13.011242
LeftLeg 16.584982 -0.000000 -0.000000
LeftFoot -11.561459 13.439530 -5.377182
LeftToeBase 6.308032 -0.000000 -0.000000
RightUpLeg -46.592818 -15.055800 -3.416434
RightLeg 65.805449 -0.000000 -0.000000
RightFoot -16.132085 -10.621575 17.703114
RightToeBase -8.503113 -0.000000 0.000000
